<?xml version="1.0" encoding="UTF-8" standalone="no"?>
<!DOCTYPE svg PUBLIC "-//W3C//DTD SVG 1.1//EN"
 "http://www.w3.org/Graphics/SVG/1.1/DTD/svg11.dtd">
<!-- Generated by graphviz version 2.49.3 (20211023.0002)
 -->
<!-- Pages: 1 -->
<svg width="396pt" height="913pt"
 viewBox="0.00 0.00 396.00 913.00" xmlns="http://www.w3.org/2000/svg" xmlns:xlink="http://www.w3.org/1999/xlink">
<g id="graph0" class="graph" transform="scale(1 1) rotate(0) translate(4 909)">
<polygon fill="white" stroke="transparent" points="-4,4 -4,-909 392,-909 392,4 -4,4"/>
<text text-anchor="start" x="8" y="-40" font-family="Times,serif" font-size="10.00">num tasks: 16683</text>
<text text-anchor="start" x="8" y="-29" font-family="Times,serif" font-size="10.00">max projected memory: 1.0 GB</text>
<text text-anchor="start" x="8" y="-18" font-family="Times,serif" font-size="10.00">total nbytes written: 2.3 TB</text>
<text text-anchor="start" x="8" y="-7" font-family="Times,serif" font-size="10.00">optimized: True</text>
<!-- op&#45;009 -->
<g id="node1" class="node">
<title>op&#45;009</title>
<g id="a_node1"><a xlink:title="name: op&#45;009&#10;op: from_zarr&#10;calls: test_quadratic_means_xarray&#10;line: 53 in test_quadratic_means_xarray">
<path fill="none" stroke="black" d="M124,-905C124,-905 89,-905 89,-905 83,-905 77,-899 77,-893 77,-893 77,-881 77,-881 77,-875 83,-869 89,-869 89,-869 124,-869 124,-869 130,-869 136,-875 136,-881 136,-881 136,-893 136,-893 136,-899 130,-905 124,-905"/>
<text text-anchor="middle" x="106.5" y="-890" font-family="Helvetica,sans-Serif" font-size="10.00">op&#45;009</text>
<text text-anchor="middle" x="106.5" y="-879" font-family="Helvetica,sans-Serif" font-size="10.00">from_zarr</text>
</a>
</g>
</g>
<!-- array&#45;009 -->
<g id="node2" class="node">
<title>array&#45;009</title>
<g id="a_node2"><a xlink:title="name: array&#45;009&#10;variable: self_data&#10;shape: (50000, 1, 987, 1920)&#10;chunks: (10, 1, 987, 1920)&#10;dtype: float64&#10;chunk memory: 151.6 MB&#10;nbytes: 758.0 GB">
<polygon fill="#ffd8b1" stroke="black" points="136,-833 77,-833 77,-797 136,-797 136,-833"/>
<text text-anchor="middle" x="106.5" y="-818" font-family="Helvetica,sans-Serif" font-size="10.00">array&#45;009</text>
<text text-anchor="middle" x="106.5" y="-807" font-family="Helvetica,sans-Serif" font-size="10.00">self_data</text>
</a>
</g>
</g>
<!-- op&#45;009&#45;&gt;array&#45;009 -->
<g id="edge1" class="edge">
<title>op&#45;009&#45;&gt;array&#45;009</title>
<path fill="none" stroke="black" d="M106.5,-868.7C106.5,-860.98 106.5,-851.71 106.5,-843.11"/>
<polygon fill="black" stroke="black" points="110,-843.1 106.5,-833.1 103,-843.1 110,-843.1"/>
</g>
<!-- op&#45;012 -->
<g id="node5" class="node">
<title>op&#45;012</title>
<g id="a_node5"><a xlink:title="name: op&#45;012&#10;op: blockwise&#10;projected memory: 706.4 MB&#10;tasks: 5000&#10;num input blocks: (1, 1)&#10;calls: test_quadratic_means_xarray&#10;line: 2273 in _binary_op">
<path fill="#dcbeff" stroke="black" d="M83.5,-761C83.5,-761 39.5,-761 39.5,-761 33.5,-761 27.5,-755 27.5,-749 27.5,-749 27.5,-732 27.5,-732 27.5,-726 33.5,-720 39.5,-720 39.5,-720 83.5,-720 83.5,-720 89.5,-720 95.5,-726 95.5,-732 95.5,-732 95.5,-749 95.5,-749 95.5,-755 89.5,-761 83.5,-761"/>
<text text-anchor="middle" x="61.5" y="-749" font-family="Helvetica,sans-Serif" font-size="10.00">op&#45;012</text>
<text text-anchor="middle" x="61.5" y="-738" font-family="Helvetica,sans-Serif" font-size="10.00">__pow__</text>
<text text-anchor="middle" x="61.5" y="-727" font-family="Helvetica,sans-Serif" font-size="10.00">tasks: 5000</text>
</a>
</g>
</g>
<!-- array&#45;009&#45;&gt;op&#45;012 -->
<g id="edge2" class="edge">
<title>array&#45;009&#45;&gt;op&#45;012</title>
<path fill="none" stroke="black" d="M95.84,-796.82C90.85,-788.78 84.77,-778.99 79.12,-769.89"/>
<polygon fill="black" stroke="black" points="81.93,-767.77 73.68,-761.12 75.98,-771.46 81.93,-767.77"/>
</g>
<!-- op&#45;015 -->
<g id="node29" class="node">
<title>op&#45;015</title>
<g id="a_node29"><a xlink:title="name: op&#45;015&#10;op: blockwise&#10;projected memory: 1.0 GB&#10;tasks: 5000&#10;num input blocks: (1, 1)&#10;calls: test_quadratic_means_xarray&#10;line: 2273 in _binary_op">
<path fill="#dcbeff" stroke="black" d="M185.5,-761C185.5,-761 141.5,-761 141.5,-761 135.5,-761 129.5,-755 129.5,-749 129.5,-749 129.5,-732 129.5,-732 129.5,-726 135.5,-720 141.5,-720 141.5,-720 185.5,-720 185.5,-720 191.5,-720 197.5,-726 197.5,-732 197.5,-732 197.5,-749 197.5,-749 197.5,-755 191.5,-761 185.5,-761"/>
<text text-anchor="middle" x="163.5" y="-749" font-family="Helvetica,sans-Serif" font-size="10.00">op&#45;015</text>
<text text-anchor="middle" x="163.5" y="-738" font-family="Helvetica,sans-Serif" font-size="10.00">__mul__</text>
<text text-anchor="middle" x="163.5" y="-727" font-family="Helvetica,sans-Serif" font-size="10.00">tasks: 5000</text>
</a>
</g>
</g>
<!-- array&#45;009&#45;&gt;op&#45;015 -->
<g id="edge3" class="edge">
<title>array&#45;009&#45;&gt;op&#45;015</title>
<path fill="none" stroke="black" d="M120.01,-796.82C126.53,-788.53 134.51,-778.38 141.85,-769.04"/>
<polygon fill="black" stroke="black" points="144.65,-771.14 148.07,-761.12 139.14,-766.82 144.65,-771.14"/>
</g>
<!-- op&#45;011 -->
<g id="node3" class="node">
<title>op&#45;011</title>
<g id="a_node3"><a xlink:title="name: op&#45;011&#10;op: asarray&#10;calls: &#10;line: 2273 in _binary_op">
<path fill="none" stroke="black" d="M46,-905C46,-905 13,-905 13,-905 7,-905 1,-899 1,-893 1,-893 1,-881 1,-881 1,-875 7,-869 13,-869 13,-869 46,-869 46,-869 52,-869 58,-875 58,-881 58,-881 58,-893 58,-893 58,-899 52,-905 46,-905"/>
<text text-anchor="middle" x="29.5" y="-890" font-family="Helvetica,sans-Serif" font-size="10.00">op&#45;011</text>
<text text-anchor="middle" x="29.5" y="-879" font-family="Helvetica,sans-Serif" font-size="10.00">__pow__</text>
</a>
</g>
</g>
<!-- array&#45;011 -->
<g id="node4" class="node">
<title>array&#45;011</title>
<g id="a_node4"><a xlink:title="name: array&#45;011&#10;shape: ()&#10;chunks: ()&#10;dtype: float64&#10;chunk memory: 8 bytes">
<polygon fill="none" stroke="black" points="59,-833 0,-833 0,-797 59,-797 59,-833"/>
<text text-anchor="middle" x="29.5" y="-812.5" font-family="Helvetica,sans-Serif" font-size="10.00">array&#45;011</text>
</a>
</g>
</g>
<!-- op&#45;011&#45;&gt;array&#45;011 -->
<g id="edge4" class="edge">
<title>op&#45;011&#45;&gt;array&#45;011</title>
<path fill="none" stroke="black" d="M29.5,-868.7C29.5,-860.98 29.5,-851.71 29.5,-843.11"/>
<polygon fill="black" stroke="black" points="33,-843.1 29.5,-833.1 26,-843.1 33,-843.1"/>
</g>
<!-- array&#45;011&#45;&gt;op&#45;012 -->
<g id="edge5" class="edge">
<title>array&#45;011&#45;&gt;op&#45;012</title>
<path fill="none" stroke="black" d="M37.08,-796.82C40.56,-788.95 44.77,-779.4 48.72,-770.46"/>
<polygon fill="black" stroke="black" points="52,-771.68 52.84,-761.12 45.6,-768.85 52,-771.68"/>
</g>
<!-- array&#45;012 -->
<g id="node6" class="node">
<title>array&#45;012</title>
<g id="a_node6"><a xlink:title="name: array&#45;012&#10;variable: values&#10;shape: (50000, 1, 987, 1920)&#10;chunks: (10, 1, 987, 1920)&#10;dtype: float64&#10;chunk memory: 151.6 MB&#10;nbytes: 758.0 GB">
<polygon fill="#ffd8b1" stroke="black" points="91,-684 32,-684 32,-648 91,-648 91,-684"/>
<text text-anchor="middle" x="61.5" y="-669" font-family="Helvetica,sans-Serif" font-size="10.00">array&#45;012</text>
<text text-anchor="middle" x="61.5" y="-658" font-family="Helvetica,sans-Serif" font-size="10.00">values</text>
</a>
</g>
</g>
<!-- op&#45;012&#45;&gt;array&#45;012 -->
<g id="edge6" class="edge">
<title>op&#45;012&#45;&gt;array&#45;012</title>
<path fill="none" stroke="black" d="M61.5,-719.69C61.5,-711.91 61.5,-702.84 61.5,-694.45"/>
<polygon fill="black" stroke="black" points="65,-694.32 61.5,-684.32 58,-694.32 65,-694.32"/>
</g>
<!-- op&#45;016 -->
<g id="node7" class="node">
<title>op&#45;016</title>
<g id="a_node7"><a xlink:title="name: op&#45;016&#10;op: blockwise&#10;projected memory: 676.1 MB&#10;tasks: 500&#10;num input blocks: (10,)&#10;calls: &#10;line: 416 in f">
<path fill="#dcbeff" stroke="black" d="M80.5,-612C80.5,-612 42.5,-612 42.5,-612 36.5,-612 30.5,-606 30.5,-600 30.5,-600 30.5,-583 30.5,-583 30.5,-577 36.5,-571 42.5,-571 42.5,-571 80.5,-571 80.5,-571 86.5,-571 92.5,-577 92.5,-583 92.5,-583 92.5,-600 92.5,-600 92.5,-606 86.5,-612 80.5,-612"/>
<text text-anchor="middle" x="61.5" y="-600" font-family="Helvetica,sans-Serif" font-size="10.00">op&#45;016</text>
<text text-anchor="middle" x="61.5" y="-589" font-family="Helvetica,sans-Serif" font-size="10.00">mean</text>
<text text-anchor="middle" x="61.5" y="-578" font-family="Helvetica,sans-Serif" font-size="10.00">tasks: 500</text>
</a>
</g>
</g>
<!-- array&#45;012&#45;&gt;op&#45;016 -->
<g id="edge7" class="edge">
<title>array&#45;012&#45;&gt;op&#45;016</title>
<path fill="none" stroke="black" d="M61.5,-647.82C61.5,-640.2 61.5,-631 61.5,-622.32"/>
<polygon fill="black" stroke="black" points="65,-622.12 61.5,-612.12 58,-622.12 65,-622.12"/>
</g>
<!-- array&#45;016 -->
<g id="node8" class="node">
<title>array&#45;016</title>
<g id="a_node8"><a xlink:title="name: array&#45;016&#10;shape: (500, 1, 987, 1920)&#10;chunks: (1, 1, 987, 1920)&#10;dtype: [(&#39;n&#39;, &#39;&lt;i8&#39;), (&#39;total&#39;, &#39;&lt;f8&#39;)]&#10;chunk memory: 30.3 MB&#10;nbytes: 15.2 GB">
<polygon fill="#ffd8b1" stroke="black" points="91,-535 32,-535 32,-499 91,-499 91,-535"/>
<text text-anchor="middle" x="61.5" y="-514.5" font-family="Helvetica,sans-Serif" font-size="10.00">array&#45;016</text>
</a>
</g>
</g>
<!-- op&#45;016&#45;&gt;array&#45;016 -->
<g id="edge8" class="edge">
<title>op&#45;016&#45;&gt;array&#45;016</title>
<path fill="none" stroke="black" d="M61.5,-570.69C61.5,-562.91 61.5,-553.84 61.5,-545.45"/>
<polygon fill="black" stroke="black" points="65,-545.32 61.5,-535.32 58,-545.32 65,-545.32"/>
</g>
<!-- op&#45;017 -->
<g id="node9" class="node">
<title>op&#45;017</title>
<g id="a_node9"><a xlink:title="name: op&#45;017&#10;op: blockwise&#10;projected memory: 312.2 MB&#10;tasks: 50&#10;num input blocks: (10,)&#10;calls: &#10;line: 416 in f">
<path fill="#dcbeff" stroke="black" d="M78,-463C78,-463 45,-463 45,-463 39,-463 33,-457 33,-451 33,-451 33,-434 33,-434 33,-428 39,-422 45,-422 45,-422 78,-422 78,-422 84,-422 90,-428 90,-434 90,-434 90,-451 90,-451 90,-457 84,-463 78,-463"/>
<text text-anchor="middle" x="61.5" y="-451" font-family="Helvetica,sans-Serif" font-size="10.00">op&#45;017</text>
<text text-anchor="middle" x="61.5" y="-440" font-family="Helvetica,sans-Serif" font-size="10.00">mean</text>
<text text-anchor="middle" x="61.5" y="-429" font-family="Helvetica,sans-Serif" font-size="10.00">tasks: 50</text>
</a>
</g>
</g>
<!-- array&#45;016&#45;&gt;op&#45;017 -->
<g id="edge9" class="edge">
<title>array&#45;016&#45;&gt;op&#45;017</title>
<path fill="none" stroke="black" d="M61.5,-498.82C61.5,-491.2 61.5,-482 61.5,-473.32"/>
<polygon fill="black" stroke="black" points="65,-473.12 61.5,-463.12 58,-473.12 65,-473.12"/>
</g>
<!-- array&#45;017 -->
<g id="node10" class="node">
<title>array&#45;017</title>
<g id="a_node10"><a xlink:title="name: array&#45;017&#10;shape: (50, 1, 987, 1920)&#10;chunks: (1, 1, 987, 1920)&#10;dtype: [(&#39;n&#39;, &#39;&lt;i8&#39;), (&#39;total&#39;, &#39;&lt;f8&#39;)]&#10;chunk memory: 30.3 MB&#10;nbytes: 1.5 GB">
<polygon fill="#ffd8b1" stroke="black" points="91,-386 32,-386 32,-350 91,-350 91,-386"/>
<text text-anchor="middle" x="61.5" y="-365.5" font-family="Helvetica,sans-Serif" font-size="10.00">array&#45;017</text>
</a>
</g>
</g>
<!-- op&#45;017&#45;&gt;array&#45;017 -->
<g id="edge10" class="edge">
<title>op&#45;017&#45;&gt;array&#45;017</title>
<path fill="none" stroke="black" d="M61.5,-421.69C61.5,-413.91 61.5,-404.84 61.5,-396.45"/>
<polygon fill="black" stroke="black" points="65,-396.32 61.5,-386.32 58,-396.32 65,-396.32"/>
</g>
<!-- op&#45;018 -->
<g id="node11" class="node">
<title>op&#45;018</title>
<g id="a_node11"><a xlink:title="name: op&#45;018&#10;op: blockwise&#10;projected memory: 312.2 MB&#10;tasks: 5&#10;num input blocks: (10,)&#10;calls: &#10;line: 416 in f">
<path fill="#dcbeff" stroke="black" d="M76.5,-314C76.5,-314 46.5,-314 46.5,-314 40.5,-314 34.5,-308 34.5,-302 34.5,-302 34.5,-285 34.5,-285 34.5,-279 40.5,-273 46.5,-273 46.5,-273 76.5,-273 76.5,-273 82.5,-273 88.5,-279 88.5,-285 88.5,-285 88.5,-302 88.5,-302 88.5,-308 82.5,-314 76.5,-314"/>
<text text-anchor="middle" x="61.5" y="-302" font-family="Helvetica,sans-Serif" font-size="10.00">op&#45;018</text>
<text text-anchor="middle" x="61.5" y="-291" font-family="Helvetica,sans-Serif" font-size="10.00">mean</text>
<text text-anchor="middle" x="61.5" y="-280" font-family="Helvetica,sans-Serif" font-size="10.00">tasks: 5</text>
</a>
</g>
</g>
<!-- array&#45;017&#45;&gt;op&#45;018 -->
<g id="edge11" class="edge">
<title>array&#45;017&#45;&gt;op&#45;018</title>
<path fill="none" stroke="black" d="M61.5,-349.82C61.5,-342.2 61.5,-333 61.5,-324.32"/>
<polygon fill="black" stroke="black" points="65,-324.12 61.5,-314.12 58,-324.12 65,-324.12"/>
</g>
<!-- array&#45;018 -->
<g id="node12" class="node">
<title>array&#45;018</title>
<g id="a_node12"><a xlink:title="name: array&#45;018&#10;shape: (5, 1, 987, 1920)&#10;chunks: (1, 1, 987, 1920)&#10;dtype: [(&#39;n&#39;, &#39;&lt;i8&#39;), (&#39;total&#39;, &#39;&lt;f8&#39;)]&#10;chunk memory: 30.3 MB&#10;nbytes: 151.6 MB">
<polygon fill="#ffd8b1" stroke="black" points="91,-237 32,-237 32,-201 91,-201 91,-237"/>
<text text-anchor="middle" x="61.5" y="-216.5" font-family="Helvetica,sans-Serif" font-size="10.00">array&#45;018</text>
</a>
</g>
</g>
<!-- op&#45;018&#45;&gt;array&#45;018 -->
<g id="edge12" class="edge">
<title>op&#45;018&#45;&gt;array&#45;018</title>
<path fill="none" stroke="black" d="M61.5,-272.69C61.5,-264.91 61.5,-255.84 61.5,-247.45"/>
<polygon fill="black" stroke="black" points="65,-247.32 61.5,-237.32 58,-247.32 65,-247.32"/>
</g>
<!-- op&#45;021 -->
<g id="node13" class="node">
<title>op&#45;021</title>
<g id="a_node13"><a xlink:title="name: op&#45;021&#10;op: blockwise&#10;projected memory: 312.2 MB&#10;tasks: 1&#10;num input blocks: (10,)&#10;calls: &#10;line: 416 in f">
<path fill="#dcbeff" stroke="black" d="M76.5,-165C76.5,-165 46.5,-165 46.5,-165 40.5,-165 34.5,-159 34.5,-153 34.5,-153 34.5,-136 34.5,-136 34.5,-130 40.5,-124 46.5,-124 46.5,-124 76.5,-124 76.5,-124 82.5,-124 88.5,-130 88.5,-136 88.5,-136 88.5,-153 88.5,-153 88.5,-159 82.5,-165 76.5,-165"/>
<text text-anchor="middle" x="61.5" y="-153" font-family="Helvetica,sans-Serif" font-size="10.00">op&#45;021</text>
<text text-anchor="middle" x="61.5" y="-142" font-family="Helvetica,sans-Serif" font-size="10.00">mean</text>
<text text-anchor="middle" x="61.5" y="-131" font-family="Helvetica,sans-Serif" font-size="10.00">tasks: 1</text>
</a>
</g>
</g>
<!-- array&#45;018&#45;&gt;op&#45;021 -->
<g id="edge13" class="edge">
<title>array&#45;018&#45;&gt;op&#45;021</title>
<path fill="none" stroke="black" d="M61.5,-200.82C61.5,-193.2 61.5,-184 61.5,-175.32"/>
<polygon fill="black" stroke="black" points="65,-175.12 61.5,-165.12 58,-175.12 65,-175.12"/>
</g>
<!-- array&#45;021 -->
<g id="node14" class="node">
<title>array&#45;021</title>
<g id="a_node14"><a xlink:title="name: array&#45;021&#10;shape: (1, 987, 1920)&#10;chunks: (1, 987, 1920)&#10;dtype: float64&#10;chunk memory: 15.2 MB&#10;nbytes: 15.2 MB">
<polygon fill="#ffd8b1" stroke="black" points="91,-88 32,-88 32,-52 91,-52 91,-88"/>
<text text-anchor="middle" x="61.5" y="-67.5" font-family="Helvetica,sans-Serif" font-size="10.00">array&#45;021</text>
</a>
</g>
</g>
<!-- op&#45;021&#45;&gt;array&#45;021 -->
<g id="edge14" class="edge">
<title>op&#45;021&#45;&gt;array&#45;021</title>
<path fill="none" stroke="black" d="M61.5,-123.69C61.5,-115.91 61.5,-106.84 61.5,-98.45"/>
<polygon fill="black" stroke="black" points="65,-98.32 61.5,-88.32 58,-98.32 65,-98.32"/>
</g>
<!-- op&#45;010 -->
<g id="node15" class="node">
<title>op&#45;010</title>
<g id="a_node15"><a xlink:title="name: op&#45;010&#10;op: from_zarr&#10;calls: test_quadratic_means_xarray&#10;line: 57 in test_quadratic_means_xarray">
<path fill="none" stroke="black" d="M204,-905C204,-905 169,-905 169,-905 163,-905 157,-899 157,-893 157,-893 157,-881 157,-881 157,-875 163,-869 169,-869 169,-869 204,-869 204,-869 210,-869 216,-875 216,-881 216,-881 216,-893 216,-893 216,-899 210,-905 204,-905"/>
<text text-anchor="middle" x="186.5" y="-890" font-family="Helvetica,sans-Serif" font-size="10.00">op&#45;010</text>
<text text-anchor="middle" x="186.5" y="-879" font-family="Helvetica,sans-Serif" font-size="10.00">from_zarr</text>
</a>
</g>
</g>
<!-- array&#45;010 -->
<g id="node16" class="node">
<title>array&#45;010</title>
<g id="a_node16"><a xlink:title="name: array&#45;010&#10;variable: other_data&#10;shape: (50000, 1, 987, 1920)&#10;chunks: (10, 1, 987, 1920)&#10;dtype: float64&#10;chunk memory: 151.6 MB&#10;nbytes: 758.0 GB">
<polygon fill="#ffd8b1" stroke="black" points="218.5,-833 154.5,-833 154.5,-797 218.5,-797 218.5,-833"/>
<text text-anchor="middle" x="186.5" y="-818" font-family="Helvetica,sans-Serif" font-size="10.00">array&#45;010</text>
<text text-anchor="middle" x="186.5" y="-807" font-family="Helvetica,sans-Serif" font-size="10.00">other_data</text>
</a>
</g>
</g>
<!-- op&#45;010&#45;&gt;array&#45;010 -->
<g id="edge15" class="edge">
<title>op&#45;010&#45;&gt;array&#45;010</title>
<path fill="none" stroke="black" d="M186.5,-868.7C186.5,-860.98 186.5,-851.71 186.5,-843.11"/>
<polygon fill="black" stroke="black" points="190,-843.1 186.5,-833.1 183,-843.1 190,-843.1"/>
</g>
<!-- op&#45;014 -->
<g id="node19" class="node">
<title>op&#45;014</title>
<g id="a_node19"><a xlink:title="name: op&#45;014&#10;op: blockwise&#10;projected memory: 706.4 MB&#10;tasks: 5000&#10;num input blocks: (1, 1)&#10;calls: test_quadratic_means_xarray&#10;line: 2273 in _binary_op">
<path fill="#dcbeff" stroke="black" d="M279.5,-761C279.5,-761 235.5,-761 235.5,-761 229.5,-761 223.5,-755 223.5,-749 223.5,-749 223.5,-732 223.5,-732 223.5,-726 229.5,-720 235.5,-720 235.5,-720 279.5,-720 279.5,-720 285.5,-720 291.5,-726 291.5,-732 291.5,-732 291.5,-749 291.5,-749 291.5,-755 285.5,-761 279.5,-761"/>
<text text-anchor="middle" x="257.5" y="-749" font-family="Helvetica,sans-Serif" font-size="10.00">op&#45;014</text>
<text text-anchor="middle" x="257.5" y="-738" font-family="Helvetica,sans-Serif" font-size="10.00">__pow__</text>
<text text-anchor="middle" x="257.5" y="-727" font-family="Helvetica,sans-Serif" font-size="10.00">tasks: 5000</text>
</a>
</g>
</g>
<!-- array&#45;010&#45;&gt;op&#45;014 -->
<g id="edge16" class="edge">
<title>array&#45;010&#45;&gt;op&#45;014</title>
<path fill="none" stroke="black" d="M203.33,-796.82C211.61,-788.36 221.79,-777.97 231.08,-768.48"/>
<polygon fill="black" stroke="black" points="233.79,-770.71 238.29,-761.12 228.79,-765.82 233.79,-770.71"/>
</g>
<!-- array&#45;010&#45;&gt;op&#45;015 -->
<g id="edge17" class="edge">
<title>array&#45;010&#45;&gt;op&#45;015</title>
<path fill="none" stroke="black" d="M181.05,-796.82C178.58,-789.03 175.59,-779.6 172.78,-770.75"/>
<polygon fill="black" stroke="black" points="176.08,-769.59 169.72,-761.12 169.41,-771.71 176.08,-769.59"/>
</g>
<!-- op&#45;013 -->
<g id="node17" class="node">
<title>op&#45;013</title>
<g id="a_node17"><a xlink:title="name: op&#45;013&#10;op: asarray&#10;calls: &#10;line: 2273 in _binary_op">
<path fill="none" stroke="black" d="M283,-905C283,-905 250,-905 250,-905 244,-905 238,-899 238,-893 238,-893 238,-881 238,-881 238,-875 244,-869 250,-869 250,-869 283,-869 283,-869 289,-869 295,-875 295,-881 295,-881 295,-893 295,-893 295,-899 289,-905 283,-905"/>
<text text-anchor="middle" x="266.5" y="-890" font-family="Helvetica,sans-Serif" font-size="10.00">op&#45;013</text>
<text text-anchor="middle" x="266.5" y="-879" font-family="Helvetica,sans-Serif" font-size="10.00">__pow__</text>
</a>
</g>
</g>
<!-- array&#45;013 -->
<g id="node18" class="node">
<title>array&#45;013</title>
<g id="a_node18"><a xlink:title="name: array&#45;013&#10;shape: ()&#10;chunks: ()&#10;dtype: float64&#10;chunk memory: 8 bytes">
<polygon fill="none" stroke="black" points="296,-833 237,-833 237,-797 296,-797 296,-833"/>
<text text-anchor="middle" x="266.5" y="-812.5" font-family="Helvetica,sans-Serif" font-size="10.00">array&#45;013</text>
</a>
</g>
</g>
<!-- op&#45;013&#45;&gt;array&#45;013 -->
<g id="edge18" class="edge">
<title>op&#45;013&#45;&gt;array&#45;013</title>
<path fill="none" stroke="black" d="M266.5,-868.7C266.5,-860.98 266.5,-851.71 266.5,-843.11"/>
<polygon fill="black" stroke="black" points="270,-843.1 266.5,-833.1 263,-843.1 270,-843.1"/>
</g>
<!-- array&#45;013&#45;&gt;op&#45;014 -->
<g id="edge19" class="edge">
<title>array&#45;013&#45;&gt;op&#45;014</title>
<path fill="none" stroke="black" d="M264.37,-796.82C263.42,-789.2 262.28,-780 261.2,-771.32"/>
<polygon fill="black" stroke="black" points="264.64,-770.61 259.94,-761.12 257.69,-771.47 264.64,-770.61"/>
</g>
<!-- array&#45;014 -->
<g id="node20" class="node">
<title>array&#45;014</title>
<g id="a_node20"><a xlink:title="name: array&#45;014&#10;variable: values&#10;shape: (50000, 1, 987, 1920)&#10;chunks: (10, 1, 987, 1920)&#10;dtype: float64&#10;chunk memory: 151.6 MB&#10;nbytes: 758.0 GB">
<polygon fill="#ffd8b1" stroke="black" points="287,-684 228,-684 228,-648 287,-648 287,-684"/>
<text text-anchor="middle" x="257.5" y="-669" font-family="Helvetica,sans-Serif" font-size="10.00">array&#45;014</text>
<text text-anchor="middle" x="257.5" y="-658" font-family="Helvetica,sans-Serif" font-size="10.00">values</text>
</a>
</g>
</g>
<!-- op&#45;014&#45;&gt;array&#45;014 -->
<g id="edge20" class="edge">
<title>op&#45;014&#45;&gt;array&#45;014</title>
<path fill="none" stroke="black" d="M257.5,-719.69C257.5,-711.91 257.5,-702.84 257.5,-694.45"/>
<polygon fill="black" stroke="black" points="261,-694.32 257.5,-684.32 254,-694.32 261,-694.32"/>
</g>
<!-- op&#45;022 -->
<g id="node21" class="node">
<title>op&#45;022</title>
<g id="a_node21"><a xlink:title="name: op&#45;022&#10;op: blockwise&#10;projected memory: 676.1 MB&#10;tasks: 500&#10;num input blocks: (10,)&#10;calls: &#10;line: 416 in f">
<path fill="#dcbeff" stroke="black" d="M276.5,-612C276.5,-612 238.5,-612 238.5,-612 232.5,-612 226.5,-606 226.5,-600 226.5,-600 226.5,-583 226.5,-583 226.5,-577 232.5,-571 238.5,-571 238.5,-571 276.5,-571 276.5,-571 282.5,-571 288.5,-577 288.5,-583 288.5,-583 288.5,-600 288.5,-600 288.5,-606 282.5,-612 276.5,-612"/>
<text text-anchor="middle" x="257.5" y="-600" font-family="Helvetica,sans-Serif" font-size="10.00">op&#45;022</text>
<text text-anchor="middle" x="257.5" y="-589" font-family="Helvetica,sans-Serif" font-size="10.00">mean</text>
<text text-anchor="middle" x="257.5" y="-578" font-family="Helvetica,sans-Serif" font-size="10.00">tasks: 500</text>
</a>
</g>
</g>
<!-- array&#45;014&#45;&gt;op&#45;022 -->
<g id="edge21" class="edge">
<title>array&#45;014&#45;&gt;op&#45;022</title>
<path fill="none" stroke="black" d="M257.5,-647.82C257.5,-640.2 257.5,-631 257.5,-622.32"/>
<polygon fill="black" stroke="black" points="261,-622.12 257.5,-612.12 254,-622.12 261,-622.12"/>
</g>
<!-- array&#45;022 -->
<g id="node22" class="node">
<title>array&#45;022</title>
<g id="a_node22"><a xlink:title="name: array&#45;022&#10;shape: (500, 1, 987, 1920)&#10;chunks: (1, 1, 987, 1920)&#10;dtype: [(&#39;n&#39;, &#39;&lt;i8&#39;), (&#39;total&#39;, &#39;&lt;f8&#39;)]&#10;chunk memory: 30.3 MB&#10;nbytes: 15.2 GB">
<polygon fill="#ffd8b1" stroke="black" points="287,-535 228,-535 228,-499 287,-499 287,-535"/>
<text text-anchor="middle" x="257.5" y="-514.5" font-family="Helvetica,sans-Serif" font-size="10.00">array&#45;022</text>
</a>
</g>
</g>
<!-- op&#45;022&#45;&gt;array&#45;022 -->
<g id="edge22" class="edge">
<title>op&#45;022&#45;&gt;array&#45;022</title>
<path fill="none" stroke="black" d="M257.5,-570.69C257.5,-562.91 257.5,-553.84 257.5,-545.45"/>
<polygon fill="black" stroke="black" points="261,-545.32 257.5,-535.32 254,-545.32 261,-545.32"/>
</g>
<!-- op&#45;023 -->
<g id="node23" class="node">
<title>op&#45;023</title>
<g id="a_node23"><a xlink:title="name: op&#45;023&#10;op: blockwise&#10;projected memory: 312.2 MB&#10;tasks: 50&#10;num input blocks: (10,)&#10;calls: &#10;line: 416 in f">
<path fill="#dcbeff" stroke="black" d="M274,-463C274,-463 241,-463 241,-463 235,-463 229,-457 229,-451 229,-451 229,-434 229,-434 229,-428 235,-422 241,-422 241,-422 274,-422 274,-422 280,-422 286,-428 286,-434 286,-434 286,-451 286,-451 286,-457 280,-463 274,-463"/>
<text text-anchor="middle" x="257.5" y="-451" font-family="Helvetica,sans-Serif" font-size="10.00">op&#45;023</text>
<text text-anchor="middle" x="257.5" y="-440" font-family="Helvetica,sans-Serif" font-size="10.00">mean</text>
<text text-anchor="middle" x="257.5" y="-429" font-family="Helvetica,sans-Serif" font-size="10.00">tasks: 50</text>
</a>
</g>
</g>
<!-- array&#45;022&#45;&gt;op&#45;023 -->
<g id="edge23" class="edge">
<title>array&#45;022&#45;&gt;op&#45;023</title>
<path fill="none" stroke="black" d="M257.5,-498.82C257.5,-491.2 257.5,-482 257.5,-473.32"/>
<polygon fill="black" stroke="black" points="261,-473.12 257.5,-463.12 254,-473.12 261,-473.12"/>
</g>
<!-- array&#45;023 -->
<g id="node24" class="node">
<title>array&#45;023</title>
<g id="a_node24"><a xlink:title="name: array&#45;023&#10;shape: (50, 1, 987, 1920)&#10;chunks: (1, 1, 987, 1920)&#10;dtype: [(&#39;n&#39;, &#39;&lt;i8&#39;), (&#39;total&#39;, &#39;&lt;f8&#39;)]&#10;chunk memory: 30.3 MB&#10;nbytes: 1.5 GB">
<polygon fill="#ffd8b1" stroke="black" points="287,-386 228,-386 228,-350 287,-350 287,-386"/>
<text text-anchor="middle" x="257.5" y="-365.5" font-family="Helvetica,sans-Serif" font-size="10.00">array&#45;023</text>
</a>
</g>
</g>
<!-- op&#45;023&#45;&gt;array&#45;023 -->
<g id="edge24" class="edge">
<title>op&#45;023&#45;&gt;array&#45;023</title>
<path fill="none" stroke="black" d="M257.5,-421.69C257.5,-413.91 257.5,-404.84 257.5,-396.45"/>
<polygon fill="black" stroke="black" points="261,-396.32 257.5,-386.32 254,-396.32 261,-396.32"/>
</g>
<!-- op&#45;024 -->
<g id="node25" class="node">
<title>op&#45;024</title>
<g id="a_node25"><a xlink:title="name: op&#45;024&#10;op: blockwise&#10;projected memory: 312.2 MB&#10;tasks: 5&#10;num input blocks: (10,)&#10;calls: &#10;line: 416 in f">
<path fill="#dcbeff" stroke="black" d="M272.5,-314C272.5,-314 242.5,-314 242.5,-314 236.5,-314 230.5,-308 230.5,-302 230.5,-302 230.5,-285 230.5,-285 230.5,-279 236.5,-273 242.5,-273 242.5,-273 272.5,-273 272.5,-273 278.5,-273 284.5,-279 284.5,-285 284.5,-285 284.5,-302 284.5,-302 284.5,-308 278.5,-314 272.5,-314"/>
<text text-anchor="middle" x="257.5" y="-302" font-family="Helvetica,sans-Serif" font-size="10.00">op&#45;024</text>
<text text-anchor="middle" x="257.5" y="-291" font-family="Helvetica,sans-Serif" font-size="10.00">mean</text>
<text text-anchor="middle" x="257.5" y="-280" font-family="Helvetica,sans-Serif" font-size="10.00">tasks: 5</text>
</a>
</g>
</g>
<!-- array&#45;023&#45;&gt;op&#45;024 -->
<g id="edge25" class="edge">
<title>array&#45;023&#45;&gt;op&#45;024</title>
<path fill="none" stroke="black" d="M257.5,-349.82C257.5,-342.2 257.5,-333 257.5,-324.32"/>
<polygon fill="black" stroke="black" points="261,-324.12 257.5,-314.12 254,-324.12 261,-324.12"/>
</g>
<!-- array&#45;024 -->
<g id="node26" class="node">
<title>array&#45;024</title>
<g id="a_node26"><a xlink:title="name: array&#45;024&#10;shape: (5, 1, 987, 1920)&#10;chunks: (1, 1, 987, 1920)&#10;dtype: [(&#39;n&#39;, &#39;&lt;i8&#39;), (&#39;total&#39;, &#39;&lt;f8&#39;)]&#10;chunk memory: 30.3 MB&#10;nbytes: 151.6 MB">
<polygon fill="#ffd8b1" stroke="black" points="287,-237 228,-237 228,-201 287,-201 287,-237"/>
<text text-anchor="middle" x="257.5" y="-216.5" font-family="Helvetica,sans-Serif" font-size="10.00">array&#45;024</text>
</a>
</g>
</g>
<!-- op&#45;024&#45;&gt;array&#45;024 -->
<g id="edge26" class="edge">
<title>op&#45;024&#45;&gt;array&#45;024</title>
<path fill="none" stroke="black" d="M257.5,-272.69C257.5,-264.91 257.5,-255.84 257.5,-247.45"/>
<polygon fill="black" stroke="black" points="261,-247.32 257.5,-237.32 254,-247.32 261,-247.32"/>
</g>
<!-- op&#45;027 -->
<g id="node27" class="node">
<title>op&#45;027</title>
<g id="a_node27"><a xlink:title="name: op&#45;027&#10;op: blockwise&#10;projected memory: 312.2 MB&#10;tasks: 1&#10;num input blocks: (10,)&#10;calls: &#10;line: 416 in f">
<path fill="#dcbeff" stroke="black" d="M272.5,-165C272.5,-165 242.5,-165 242.5,-165 236.5,-165 230.5,-159 230.5,-153 230.5,-153 230.5,-136 230.5,-136 230.5,-130 236.5,-124 242.5,-124 242.5,-124 272.5,-124 272.5,-124 278.5,-124 284.5,-130 284.5,-136 284.5,-136 284.5,-153 284.5,-153 284.5,-159 278.5,-165 272.5,-165"/>
<text text-anchor="middle" x="257.5" y="-153" font-family="Helvetica,sans-Serif" font-size="10.00">op&#45;027</text>
<text text-anchor="middle" x="257.5" y="-142" font-family="Helvetica,sans-Serif" font-size="10.00">mean</text>
<text text-anchor="middle" x="257.5" y="-131" font-family="Helvetica,sans-Serif" font-size="10.00">tasks: 1</text>
</a>
</g>
</g>
<!-- array&#45;024&#45;&gt;op&#45;027 -->
<g id="edge27" class="edge">
<title>array&#45;024&#45;&gt;op&#45;027</title>
<path fill="none" stroke="black" d="M257.5,-200.82C257.5,-193.2 257.5,-184 257.5,-175.32"/>
<polygon fill="black" stroke="black" points="261,-175.12 257.5,-165.12 254,-175.12 261,-175.12"/>
</g>
<!-- array&#45;027 -->
<g id="node28" class="node">
<title>array&#45;027</title>
<g id="a_node28"><a xlink:title="name: array&#45;027&#10;shape: (1, 987, 1920)&#10;chunks: (1, 987, 1920)&#10;dtype: float64&#10;chunk memory: 15.2 MB&#10;nbytes: 15.2 MB">
<polygon fill="#ffd8b1" stroke="black" points="287,-88 228,-88 228,-52 287,-52 287,-88"/>
<text text-anchor="middle" x="257.5" y="-67.5" font-family="Helvetica,sans-Serif" font-size="10.00">array&#45;027</text>
</a>
</g>
</g>
<!-- op&#45;027&#45;&gt;array&#45;027 -->
<g id="edge28" class="edge">
<title>op&#45;027&#45;&gt;array&#45;027</title>
<path fill="none" stroke="black" d="M257.5,-123.69C257.5,-115.91 257.5,-106.84 257.5,-98.45"/>
<polygon fill="black" stroke="black" points="261,-98.32 257.5,-88.32 254,-98.32 261,-98.32"/>
</g>
<!-- array&#45;015 -->
<g id="node30" class="node">
<title>array&#45;015</title>
<g id="a_node30"><a xlink:title="name: array&#45;015&#10;variable: values&#10;shape: (50000, 1, 987, 1920)&#10;chunks: (10, 1, 987, 1920)&#10;dtype: float64&#10;chunk memory: 151.6 MB&#10;nbytes: 758.0 GB">
<polygon fill="#ffd8b1" stroke="black" points="193,-684 134,-684 134,-648 193,-648 193,-684"/>
<text text-anchor="middle" x="163.5" y="-669" font-family="Helvetica,sans-Serif" font-size="10.00">array&#45;015</text>
<text text-anchor="middle" x="163.5" y="-658" font-family="Helvetica,sans-Serif" font-size="10.00">values</text>
</a>
</g>
</g>
<!-- op&#45;015&#45;&gt;array&#45;015 -->
<g id="edge29" class="edge">
<title>op&#45;015&#45;&gt;array&#45;015</title>
<path fill="none" stroke="black" d="M163.5,-719.69C163.5,-711.91 163.5,-702.84 163.5,-694.45"/>
<polygon fill="black" stroke="black" points="167,-694.32 163.5,-684.32 160,-694.32 167,-694.32"/>
</g>
<!-- op&#45;028 -->
<g id="node31" class="node">
<title>op&#45;028</title>
<g id="a_node31"><a xlink:title="name: op&#45;028&#10;op: blockwise&#10;projected memory: 676.1 MB&#10;tasks: 500&#10;num input blocks: (10,)&#10;calls: &#10;line: 416 in f">
<path fill="#dcbeff" stroke="black" d="M182.5,-612C182.5,-612 144.5,-612 144.5,-612 138.5,-612 132.5,-606 132.5,-600 132.5,-600 132.5,-583 132.5,-583 132.5,-577 138.5,-571 144.5,-571 144.5,-571 182.5,-571 182.5,-571 188.5,-571 194.5,-577 194.5,-583 194.5,-583 194.5,-600 194.5,-600 194.5,-606 188.5,-612 182.5,-612"/>
<text text-anchor="middle" x="163.5" y="-600" font-family="Helvetica,sans-Serif" font-size="10.00">op&#45;028</text>
<text text-anchor="middle" x="163.5" y="-589" font-family="Helvetica,sans-Serif" font-size="10.00">mean</text>
<text text-anchor="middle" x="163.5" y="-578" font-family="Helvetica,sans-Serif" font-size="10.00">tasks: 500</text>
</a>
</g>
</g>
<!-- array&#45;015&#45;&gt;op&#45;028 -->
<g id="edge30" class="edge">
<title>array&#45;015&#45;&gt;op&#45;028</title>
<path fill="none" stroke="black" d="M163.5,-647.82C163.5,-640.2 163.5,-631 163.5,-622.32"/>
<polygon fill="black" stroke="black" points="167,-622.12 163.5,-612.12 160,-622.12 167,-622.12"/>
</g>
<!-- array&#45;028 -->
<g id="node32" class="node">
<title>array&#45;028</title>
<g id="a_node32"><a xlink:title="name: array&#45;028&#10;shape: (500, 1, 987, 1920)&#10;chunks: (1, 1, 987, 1920)&#10;dtype: [(&#39;n&#39;, &#39;&lt;i8&#39;), (&#39;total&#39;, &#39;&lt;f8&#39;)]&#10;chunk memory: 30.3 MB&#10;nbytes: 15.2 GB">
<polygon fill="#ffd8b1" stroke="black" points="193,-535 134,-535 134,-499 193,-499 193,-535"/>
<text text-anchor="middle" x="163.5" y="-514.5" font-family="Helvetica,sans-Serif" font-size="10.00">array&#45;028</text>
</a>
</g>
</g>
<!-- op&#45;028&#45;&gt;array&#45;028 -->
<g id="edge31" class="edge">
<title>op&#45;028&#45;&gt;array&#45;028</title>
<path fill="none" stroke="black" d="M163.5,-570.69C163.5,-562.91 163.5,-553.84 163.5,-545.45"/>
<polygon fill="black" stroke="black" points="167,-545.32 163.5,-535.32 160,-545.32 167,-545.32"/>
</g>
<!-- op&#45;029 -->
<g id="node33" class="node">
<title>op&#45;029</title>
<g id="a_node33"><a xlink:title="name: op&#45;029&#10;op: blockwise&#10;projected memory: 312.2 MB&#10;tasks: 50&#10;num input blocks: (10,)&#10;calls: &#10;line: 416 in f">
<path fill="#dcbeff" stroke="black" d="M180,-463C180,-463 147,-463 147,-463 141,-463 135,-457 135,-451 135,-451 135,-434 135,-434 135,-428 141,-422 147,-422 147,-422 180,-422 180,-422 186,-422 192,-428 192,-434 192,-434 192,-451 192,-451 192,-457 186,-463 180,-463"/>
<text text-anchor="middle" x="163.5" y="-451" font-family="Helvetica,sans-Serif" font-size="10.00">op&#45;029</text>
<text text-anchor="middle" x="163.5" y="-440" font-family="Helvetica,sans-Serif" font-size="10.00">mean</text>
<text text-anchor="middle" x="163.5" y="-429" font-family="Helvetica,sans-Serif" font-size="10.00">tasks: 50</text>
</a>
</g>
</g>
<!-- array&#45;028&#45;&gt;op&#45;029 -->
<g id="edge32" class="edge">
<title>array&#45;028&#45;&gt;op&#45;029</title>
<path fill="none" stroke="black" d="M163.5,-498.82C163.5,-491.2 163.5,-482 163.5,-473.32"/>
<polygon fill="black" stroke="black" points="167,-473.12 163.5,-463.12 160,-473.12 167,-473.12"/>
</g>
<!-- array&#45;029 -->
<g id="node34" class="node">
<title>array&#45;029</title>
<g id="a_node34"><a xlink:title="name: array&#45;029&#10;shape: (50, 1, 987, 1920)&#10;chunks: (1, 1, 987, 1920)&#10;dtype: [(&#39;n&#39;, &#39;&lt;i8&#39;), (&#39;total&#39;, &#39;&lt;f8&#39;)]&#10;chunk memory: 30.3 MB&#10;nbytes: 1.5 GB">
<polygon fill="#ffd8b1" stroke="black" points="193,-386 134,-386 134,-350 193,-350 193,-386"/>
<text text-anchor="middle" x="163.5" y="-365.5" font-family="Helvetica,sans-Serif" font-size="10.00">array&#45;029</text>
</a>
</g>
</g>
<!-- op&#45;029&#45;&gt;array&#45;029 -->
<g id="edge33" class="edge">
<title>op&#45;029&#45;&gt;array&#45;029</title>
<path fill="none" stroke="black" d="M163.5,-421.69C163.5,-413.91 163.5,-404.84 163.5,-396.45"/>
<polygon fill="black" stroke="black" points="167,-396.32 163.5,-386.32 160,-396.32 167,-396.32"/>
</g>
<!-- op&#45;030 -->
<g id="node35" class="node">
<title>op&#45;030</title>
<g id="a_node35"><a xlink:title="name: op&#45;030&#10;op: blockwise&#10;projected memory: 312.2 MB&#10;tasks: 5&#10;num input blocks: (10,)&#10;calls: &#10;line: 416 in f">
<path fill="#dcbeff" stroke="black" d="M178.5,-314C178.5,-314 148.5,-314 148.5,-314 142.5,-314 136.5,-308 136.5,-302 136.5,-302 136.5,-285 136.5,-285 136.5,-279 142.5,-273 148.5,-273 148.5,-273 178.5,-273 178.5,-273 184.5,-273 190.5,-279 190.5,-285 190.5,-285 190.5,-302 190.5,-302 190.5,-308 184.5,-314 178.5,-314"/>
<text text-anchor="middle" x="163.5" y="-302" font-family="Helvetica,sans-Serif" font-size="10.00">op&#45;030</text>
<text text-anchor="middle" x="163.5" y="-291" font-family="Helvetica,sans-Serif" font-size="10.00">mean</text>
<text text-anchor="middle" x="163.5" y="-280" font-family="Helvetica,sans-Serif" font-size="10.00">tasks: 5</text>
</a>
</g>
</g>
<!-- array&#45;029&#45;&gt;op&#45;030 -->
<g id="edge34" class="edge">
<title>array&#45;029&#45;&gt;op&#45;030</title>
<path fill="none" stroke="black" d="M163.5,-349.82C163.5,-342.2 163.5,-333 163.5,-324.32"/>
<polygon fill="black" stroke="black" points="167,-324.12 163.5,-314.12 160,-324.12 167,-324.12"/>
</g>
<!-- array&#45;030 -->
<g id="node36" class="node">
<title>array&#45;030</title>
<g id="a_node36"><a xlink:title="name: array&#45;030&#10;shape: (5, 1, 987, 1920)&#10;chunks: (1, 1, 987, 1920)&#10;dtype: [(&#39;n&#39;, &#39;&lt;i8&#39;), (&#39;total&#39;, &#39;&lt;f8&#39;)]&#10;chunk memory: 30.3 MB&#10;nbytes: 151.6 MB">
<polygon fill="#ffd8b1" stroke="black" points="193,-237 134,-237 134,-201 193,-201 193,-237"/>
<text text-anchor="middle" x="163.5" y="-216.5" font-family="Helvetica,sans-Serif" font-size="10.00">array&#45;030</text>
</a>
</g>
</g>
<!-- op&#45;030&#45;&gt;array&#45;030 -->
<g id="edge35" class="edge">
<title>op&#45;030&#45;&gt;array&#45;030</title>
<path fill="none" stroke="black" d="M163.5,-272.69C163.5,-264.91 163.5,-255.84 163.5,-247.45"/>
<polygon fill="black" stroke="black" points="167,-247.32 163.5,-237.32 160,-247.32 167,-247.32"/>
</g>
<!-- op&#45;033 -->
<g id="node37" class="node">
<title>op&#45;033</title>
<g id="a_node37"><a xlink:title="name: op&#45;033&#10;op: blockwise&#10;projected memory: 312.2 MB&#10;tasks: 1&#10;num input blocks: (10,)&#10;calls: &#10;line: 416 in f">
<path fill="#dcbeff" stroke="black" d="M178.5,-165C178.5,-165 148.5,-165 148.5,-165 142.5,-165 136.5,-159 136.5,-153 136.5,-153 136.5,-136 136.5,-136 136.5,-130 142.5,-124 148.5,-124 148.5,-124 178.5,-124 178.5,-124 184.5,-124 190.5,-130 190.5,-136 190.5,-136 190.5,-153 190.5,-153 190.5,-159 184.5,-165 178.5,-165"/>
<text text-anchor="middle" x="163.5" y="-153" font-family="Helvetica,sans-Serif" font-size="10.00">op&#45;033</text>
<text text-anchor="middle" x="163.5" y="-142" font-family="Helvetica,sans-Serif" font-size="10.00">mean</text>
<text text-anchor="middle" x="163.5" y="-131" font-family="Helvetica,sans-Serif" font-size="10.00">tasks: 1</text>
</a>
</g>
</g>
<!-- array&#45;030&#45;&gt;op&#45;033 -->
<g id="edge36" class="edge">
<title>array&#45;030&#45;&gt;op&#45;033</title>
<path fill="none" stroke="black" d="M163.5,-200.82C163.5,-193.2 163.5,-184 163.5,-175.32"/>
<polygon fill="black" stroke="black" points="167,-175.12 163.5,-165.12 160,-175.12 167,-175.12"/>
</g>
<!-- array&#45;033 -->
<g id="node38" class="node">
<title>array&#45;033</title>
<g id="a_node38"><a xlink:title="name: array&#45;033&#10;shape: (1, 987, 1920)&#10;chunks: (1, 987, 1920)&#10;dtype: float64&#10;chunk memory: 15.2 MB&#10;nbytes: 15.2 MB">
<polygon fill="#ffd8b1" stroke="black" points="193,-88 134,-88 134,-52 193,-52 193,-88"/>
<text text-anchor="middle" x="163.5" y="-67.5" font-family="Helvetica,sans-Serif" font-size="10.00">array&#45;033</text>
</a>
</g>
</g>
<!-- op&#45;033&#45;&gt;array&#45;033 -->
<g id="edge37" class="edge">
<title>op&#45;033&#45;&gt;array&#45;033</title>
<path fill="none" stroke="black" d="M163.5,-123.69C163.5,-115.91 163.5,-106.84 163.5,-98.45"/>
<polygon fill="black" stroke="black" points="167,-98.32 163.5,-88.32 160,-98.32 167,-98.32"/>
</g>
<!-- create&#45;arrays -->
<g id="node39" class="node">
<title>create&#45;arrays</title>
<g id="a_node39"><a xlink:title="name: create&#45;arrays&#10;op: create&#45;arrays&#10;projected memory: 100.0 MB&#10;tasks: 15">
<path fill="none" stroke="black" d="M376,-905C376,-905 325,-905 325,-905 319,-905 313,-899 313,-893 313,-893 313,-881 313,-881 313,-875 319,-869 325,-869 325,-869 376,-869 376,-869 382,-869 388,-875 388,-881 388,-881 388,-893 388,-893 388,-899 382,-905 376,-905"/>
<text text-anchor="middle" x="350.5" y="-890" font-family="Helvetica,sans-Serif" font-size="10.00">create&#45;arrays</text>
<text text-anchor="middle" x="350.5" y="-879" font-family="Helvetica,sans-Serif" font-size="10.00">tasks: 15</text>
</a>
</g>
</g>
<!-- arrays -->
<g id="node40" class="node">
<title>arrays</title>
<g id="a_node40"><a xlink:title="name: arrays" target="None">
<polygon fill="none" stroke="black" points="377.5,-833 323.5,-833 323.5,-797 377.5,-797 377.5,-833"/>
<text text-anchor="middle" x="350.5" y="-812.5" font-family="Helvetica,sans-Serif" font-size="10.00">arrays</text>
</a>
</g>
</g>
<!-- create&#45;arrays&#45;&gt;arrays -->
<g id="edge38" class="edge">
<title>create&#45;arrays&#45;&gt;arrays</title>
<path fill="none" stroke="black" d="M350.5,-868.7C350.5,-860.98 350.5,-851.71 350.5,-843.11"/>
<polygon fill="black" stroke="black" points="354,-843.1 350.5,-833.1 347,-843.1 354,-843.1"/>
</g>
</g>
</svg>
