<?xml version="1.0" encoding="UTF-8" standalone="no"?>
<!DOCTYPE svg PUBLIC "-//W3C//DTD SVG 1.1//EN"
 "http://www.w3.org/Graphics/SVG/1.1/DTD/svg11.dtd">
<!-- Generated by graphviz version 2.49.3 (20211023.0002)
 -->
<!-- Pages: 1 -->
<svg width="390pt" height="764pt"
 viewBox="0.00 0.00 390.00 764.00" xmlns="http://www.w3.org/2000/svg" xmlns:xlink="http://www.w3.org/1999/xlink">
<g id="graph0" class="graph" transform="scale(1 1) rotate(0) translate(4 760)">
<polygon fill="white" stroke="transparent" points="-4,4 -4,-760 386,-760 386,4 -4,4"/>
<text text-anchor="start" x="8" y="-40" font-family="Times,serif" font-size="10.00">num tasks: 1680</text>
<text text-anchor="start" x="8" y="-29" font-family="Times,serif" font-size="10.00">max projected memory: 1.0 GB</text>
<text text-anchor="start" x="8" y="-18" font-family="Times,serif" font-size="10.00">total nbytes written: 50.5 GB</text>
<text text-anchor="start" x="8" y="-7" font-family="Times,serif" font-size="10.00">optimized: True</text>
<!-- op&#45;075 -->
<g id="node1" class="node">
<title>op&#45;075</title>
<g id="a_node1"><a xlink:title="name: op&#45;075&#10;op: from_zarr&#10;calls: test_quadratic_means_xarray&#10;line: 53 in test_quadratic_means_xarray">
<path fill="none" stroke="black" d="M124,-756C124,-756 89,-756 89,-756 83,-756 77,-750 77,-744 77,-744 77,-732 77,-732 77,-726 83,-720 89,-720 89,-720 124,-720 124,-720 130,-720 136,-726 136,-732 136,-732 136,-744 136,-744 136,-750 130,-756 124,-756"/>
<text text-anchor="middle" x="106.5" y="-741" font-family="Helvetica,sans-Serif" font-size="10.00">op&#45;075</text>
<text text-anchor="middle" x="106.5" y="-730" font-family="Helvetica,sans-Serif" font-size="10.00">from_zarr</text>
</a>
</g>
</g>
<!-- array&#45;075 -->
<g id="node2" class="node">
<title>array&#45;075</title>
<g id="a_node2"><a xlink:title="name: array&#45;075&#10;variable: self_data&#10;shape: (50000, 1, 987, 1920)&#10;chunks: (10, 1, 987, 1920)&#10;dtype: float64&#10;chunk memory: 151.6 MB&#10;nbytes: 758.0 GB">
<polygon fill="#ffd8b1" stroke="black" points="136,-684 77,-684 77,-648 136,-648 136,-684"/>
<text text-anchor="middle" x="106.5" y="-669" font-family="Helvetica,sans-Serif" font-size="10.00">array&#45;075</text>
<text text-anchor="middle" x="106.5" y="-658" font-family="Helvetica,sans-Serif" font-size="10.00">self_data</text>
</a>
</g>
</g>
<!-- op&#45;075&#45;&gt;array&#45;075 -->
<g id="edge1" class="edge">
<title>op&#45;075&#45;&gt;array&#45;075</title>
<path fill="none" stroke="black" d="M106.5,-719.7C106.5,-711.98 106.5,-702.71 106.5,-694.11"/>
<polygon fill="black" stroke="black" points="110,-694.1 106.5,-684.1 103,-694.1 110,-694.1"/>
</g>
<!-- op&#45;082 -->
<g id="node5" class="node">
<title>op&#45;082</title>
<g id="a_node5"><a xlink:title="name: op&#45;082&#10;op: blockwise&#10;projected memory: 706.4 MB&#10;tasks: 500&#10;num input blocks: (10, 10)&#10;calls: &#10;line: 416 in f">
<path fill="#dcbeff" stroke="black" d="M83.5,-612C83.5,-612 45.5,-612 45.5,-612 39.5,-612 33.5,-606 33.5,-600 33.5,-600 33.5,-583 33.5,-583 33.5,-577 39.5,-571 45.5,-571 45.5,-571 83.5,-571 83.5,-571 89.5,-571 95.5,-577 95.5,-583 95.5,-583 95.5,-600 95.5,-600 95.5,-606 89.5,-612 83.5,-612"/>
<text text-anchor="middle" x="64.5" y="-600" font-family="Helvetica,sans-Serif" font-size="10.00">op&#45;082</text>
<text text-anchor="middle" x="64.5" y="-589" font-family="Helvetica,sans-Serif" font-size="10.00">mean</text>
<text text-anchor="middle" x="64.5" y="-578" font-family="Helvetica,sans-Serif" font-size="10.00">tasks: 500</text>
</a>
</g>
</g>
<!-- array&#45;075&#45;&gt;op&#45;082 -->
<g id="edge2" class="edge">
<title>array&#45;075&#45;&gt;op&#45;082</title>
<path fill="none" stroke="black" d="M96.55,-647.82C91.89,-639.78 86.22,-629.99 80.95,-620.89"/>
<polygon fill="black" stroke="black" points="83.91,-619.02 75.87,-612.12 77.85,-622.53 83.91,-619.02"/>
</g>
<!-- op&#45;094 -->
<g id="node25" class="node">
<title>op&#45;094</title>
<g id="a_node25"><a xlink:title="name: op&#45;094&#10;op: blockwise&#10;projected memory: 1.0 GB&#10;tasks: 500&#10;num input blocks: (10, 10)&#10;calls: &#10;line: 416 in f">
<path fill="#dcbeff" stroke="black" d="M181.5,-612C181.5,-612 143.5,-612 143.5,-612 137.5,-612 131.5,-606 131.5,-600 131.5,-600 131.5,-583 131.5,-583 131.5,-577 137.5,-571 143.5,-571 143.5,-571 181.5,-571 181.5,-571 187.5,-571 193.5,-577 193.5,-583 193.5,-583 193.5,-600 193.5,-600 193.5,-606 187.5,-612 181.5,-612"/>
<text text-anchor="middle" x="162.5" y="-600" font-family="Helvetica,sans-Serif" font-size="10.00">op&#45;094</text>
<text text-anchor="middle" x="162.5" y="-589" font-family="Helvetica,sans-Serif" font-size="10.00">mean</text>
<text text-anchor="middle" x="162.5" y="-578" font-family="Helvetica,sans-Serif" font-size="10.00">tasks: 500</text>
</a>
</g>
</g>
<!-- array&#45;075&#45;&gt;op&#45;094 -->
<g id="edge3" class="edge">
<title>array&#45;075&#45;&gt;op&#45;094</title>
<path fill="none" stroke="black" d="M119.77,-647.82C126.18,-639.53 134.02,-629.38 141.23,-620.04"/>
<polygon fill="black" stroke="black" points="144,-622.17 147.35,-612.12 138.46,-617.89 144,-622.17"/>
</g>
<!-- op&#45;077 -->
<g id="node3" class="node">
<title>op&#45;077</title>
<g id="a_node3"><a xlink:title="name: op&#45;077&#10;op: asarray&#10;calls: &#10;line: 2273 in _binary_op">
<path fill="none" stroke="black" d="M46,-756C46,-756 13,-756 13,-756 7,-756 1,-750 1,-744 1,-744 1,-732 1,-732 1,-726 7,-720 13,-720 13,-720 46,-720 46,-720 52,-720 58,-726 58,-732 58,-732 58,-744 58,-744 58,-750 52,-756 46,-756"/>
<text text-anchor="middle" x="29.5" y="-741" font-family="Helvetica,sans-Serif" font-size="10.00">op&#45;077</text>
<text text-anchor="middle" x="29.5" y="-730" font-family="Helvetica,sans-Serif" font-size="10.00">__pow__</text>
</a>
</g>
</g>
<!-- array&#45;077 -->
<g id="node4" class="node">
<title>array&#45;077</title>
<g id="a_node4"><a xlink:title="name: array&#45;077&#10;shape: ()&#10;chunks: ()&#10;dtype: float64&#10;chunk memory: 8 bytes">
<polygon fill="none" stroke="black" points="59,-684 0,-684 0,-648 59,-648 59,-684"/>
<text text-anchor="middle" x="29.5" y="-663.5" font-family="Helvetica,sans-Serif" font-size="10.00">array&#45;077</text>
</a>
</g>
</g>
<!-- op&#45;077&#45;&gt;array&#45;077 -->
<g id="edge4" class="edge">
<title>op&#45;077&#45;&gt;array&#45;077</title>
<path fill="none" stroke="black" d="M29.5,-719.7C29.5,-711.98 29.5,-702.71 29.5,-694.11"/>
<polygon fill="black" stroke="black" points="33,-694.1 29.5,-684.1 26,-694.1 33,-694.1"/>
</g>
<!-- array&#45;077&#45;&gt;op&#45;082 -->
<g id="edge5" class="edge">
<title>array&#45;077&#45;&gt;op&#45;082</title>
<path fill="none" stroke="black" d="M37.79,-647.82C41.64,-639.86 46.3,-630.19 50.66,-621.18"/>
<polygon fill="black" stroke="black" points="53.83,-622.65 55.03,-612.12 47.53,-619.6 53.83,-622.65"/>
</g>
<!-- array&#45;082 -->
<g id="node6" class="node">
<title>array&#45;082</title>
<g id="a_node6"><a xlink:title="name: array&#45;082&#10;shape: (500, 1, 987, 1920)&#10;chunks: (1, 1, 987, 1920)&#10;dtype: [(&#39;n&#39;, &#39;&lt;i8&#39;), (&#39;total&#39;, &#39;&lt;f8&#39;)]&#10;chunk memory: 30.3 MB&#10;nbytes: 15.2 GB">
<polygon fill="#ffd8b1" stroke="black" points="94,-535 35,-535 35,-499 94,-499 94,-535"/>
<text text-anchor="middle" x="64.5" y="-514.5" font-family="Helvetica,sans-Serif" font-size="10.00">array&#45;082</text>
</a>
</g>
</g>
<!-- op&#45;082&#45;&gt;array&#45;082 -->
<g id="edge6" class="edge">
<title>op&#45;082&#45;&gt;array&#45;082</title>
<path fill="none" stroke="black" d="M64.5,-570.69C64.5,-562.91 64.5,-553.84 64.5,-545.45"/>
<polygon fill="black" stroke="black" points="68,-545.32 64.5,-535.32 61,-545.32 68,-545.32"/>
</g>
<!-- op&#45;083 -->
<g id="node7" class="node">
<title>op&#45;083</title>
<g id="a_node7"><a xlink:title="name: op&#45;083&#10;op: blockwise&#10;projected memory: 312.2 MB&#10;tasks: 50&#10;num input blocks: (10,)&#10;calls: &#10;line: 416 in f">
<path fill="#dcbeff" stroke="black" d="M81,-463C81,-463 48,-463 48,-463 42,-463 36,-457 36,-451 36,-451 36,-434 36,-434 36,-428 42,-422 48,-422 48,-422 81,-422 81,-422 87,-422 93,-428 93,-434 93,-434 93,-451 93,-451 93,-457 87,-463 81,-463"/>
<text text-anchor="middle" x="64.5" y="-451" font-family="Helvetica,sans-Serif" font-size="10.00">op&#45;083</text>
<text text-anchor="middle" x="64.5" y="-440" font-family="Helvetica,sans-Serif" font-size="10.00">mean</text>
<text text-anchor="middle" x="64.5" y="-429" font-family="Helvetica,sans-Serif" font-size="10.00">tasks: 50</text>
</a>
</g>
</g>
<!-- array&#45;082&#45;&gt;op&#45;083 -->
<g id="edge7" class="edge">
<title>array&#45;082&#45;&gt;op&#45;083</title>
<path fill="none" stroke="black" d="M64.5,-498.82C64.5,-491.2 64.5,-482 64.5,-473.32"/>
<polygon fill="black" stroke="black" points="68,-473.12 64.5,-463.12 61,-473.12 68,-473.12"/>
</g>
<!-- array&#45;083 -->
<g id="node8" class="node">
<title>array&#45;083</title>
<g id="a_node8"><a xlink:title="name: array&#45;083&#10;shape: (50, 1, 987, 1920)&#10;chunks: (1, 1, 987, 1920)&#10;dtype: [(&#39;n&#39;, &#39;&lt;i8&#39;), (&#39;total&#39;, &#39;&lt;f8&#39;)]&#10;chunk memory: 30.3 MB&#10;nbytes: 1.5 GB">
<polygon fill="#ffd8b1" stroke="black" points="94,-386 35,-386 35,-350 94,-350 94,-386"/>
<text text-anchor="middle" x="64.5" y="-365.5" font-family="Helvetica,sans-Serif" font-size="10.00">array&#45;083</text>
</a>
</g>
</g>
<!-- op&#45;083&#45;&gt;array&#45;083 -->
<g id="edge8" class="edge">
<title>op&#45;083&#45;&gt;array&#45;083</title>
<path fill="none" stroke="black" d="M64.5,-421.69C64.5,-413.91 64.5,-404.84 64.5,-396.45"/>
<polygon fill="black" stroke="black" points="68,-396.32 64.5,-386.32 61,-396.32 68,-396.32"/>
</g>
<!-- op&#45;084 -->
<g id="node9" class="node">
<title>op&#45;084</title>
<g id="a_node9"><a xlink:title="name: op&#45;084&#10;op: blockwise&#10;projected memory: 312.2 MB&#10;tasks: 5&#10;num input blocks: (10,)&#10;calls: &#10;line: 416 in f">
<path fill="#dcbeff" stroke="black" d="M79.5,-314C79.5,-314 49.5,-314 49.5,-314 43.5,-314 37.5,-308 37.5,-302 37.5,-302 37.5,-285 37.5,-285 37.5,-279 43.5,-273 49.5,-273 49.5,-273 79.5,-273 79.5,-273 85.5,-273 91.5,-279 91.5,-285 91.5,-285 91.5,-302 91.5,-302 91.5,-308 85.5,-314 79.5,-314"/>
<text text-anchor="middle" x="64.5" y="-302" font-family="Helvetica,sans-Serif" font-size="10.00">op&#45;084</text>
<text text-anchor="middle" x="64.5" y="-291" font-family="Helvetica,sans-Serif" font-size="10.00">mean</text>
<text text-anchor="middle" x="64.5" y="-280" font-family="Helvetica,sans-Serif" font-size="10.00">tasks: 5</text>
</a>
</g>
</g>
<!-- array&#45;083&#45;&gt;op&#45;084 -->
<g id="edge9" class="edge">
<title>array&#45;083&#45;&gt;op&#45;084</title>
<path fill="none" stroke="black" d="M64.5,-349.82C64.5,-342.2 64.5,-333 64.5,-324.32"/>
<polygon fill="black" stroke="black" points="68,-324.12 64.5,-314.12 61,-324.12 68,-324.12"/>
</g>
<!-- array&#45;084 -->
<g id="node10" class="node">
<title>array&#45;084</title>
<g id="a_node10"><a xlink:title="name: array&#45;084&#10;shape: (5, 1, 987, 1920)&#10;chunks: (1, 1, 987, 1920)&#10;dtype: [(&#39;n&#39;, &#39;&lt;i8&#39;), (&#39;total&#39;, &#39;&lt;f8&#39;)]&#10;chunk memory: 30.3 MB&#10;nbytes: 151.6 MB">
<polygon fill="#ffd8b1" stroke="black" points="94,-237 35,-237 35,-201 94,-201 94,-237"/>
<text text-anchor="middle" x="64.5" y="-216.5" font-family="Helvetica,sans-Serif" font-size="10.00">array&#45;084</text>
</a>
</g>
</g>
<!-- op&#45;084&#45;&gt;array&#45;084 -->
<g id="edge10" class="edge">
<title>op&#45;084&#45;&gt;array&#45;084</title>
<path fill="none" stroke="black" d="M64.5,-272.69C64.5,-264.91 64.5,-255.84 64.5,-247.45"/>
<polygon fill="black" stroke="black" points="68,-247.32 64.5,-237.32 61,-247.32 68,-247.32"/>
</g>
<!-- op&#45;087 -->
<g id="node11" class="node">
<title>op&#45;087</title>
<g id="a_node11"><a xlink:title="name: op&#45;087&#10;op: blockwise&#10;projected memory: 312.2 MB&#10;tasks: 1&#10;num input blocks: (10,)&#10;calls: &#10;line: 416 in f">
<path fill="#dcbeff" stroke="black" d="M79.5,-165C79.5,-165 49.5,-165 49.5,-165 43.5,-165 37.5,-159 37.5,-153 37.5,-153 37.5,-136 37.5,-136 37.5,-130 43.5,-124 49.5,-124 49.5,-124 79.5,-124 79.5,-124 85.5,-124 91.5,-130 91.5,-136 91.5,-136 91.5,-153 91.5,-153 91.5,-159 85.5,-165 79.5,-165"/>
<text text-anchor="middle" x="64.5" y="-153" font-family="Helvetica,sans-Serif" font-size="10.00">op&#45;087</text>
<text text-anchor="middle" x="64.5" y="-142" font-family="Helvetica,sans-Serif" font-size="10.00">mean</text>
<text text-anchor="middle" x="64.5" y="-131" font-family="Helvetica,sans-Serif" font-size="10.00">tasks: 1</text>
</a>
</g>
</g>
<!-- array&#45;084&#45;&gt;op&#45;087 -->
<g id="edge11" class="edge">
<title>array&#45;084&#45;&gt;op&#45;087</title>
<path fill="none" stroke="black" d="M64.5,-200.82C64.5,-193.2 64.5,-184 64.5,-175.32"/>
<polygon fill="black" stroke="black" points="68,-175.12 64.5,-165.12 61,-175.12 68,-175.12"/>
</g>
<!-- array&#45;087 -->
<g id="node12" class="node">
<title>array&#45;087</title>
<g id="a_node12"><a xlink:title="name: array&#45;087&#10;shape: (1, 987, 1920)&#10;chunks: (1, 987, 1920)&#10;dtype: float64&#10;chunk memory: 15.2 MB&#10;nbytes: 15.2 MB">
<polygon fill="#ffd8b1" stroke="black" points="94,-88 35,-88 35,-52 94,-52 94,-88"/>
<text text-anchor="middle" x="64.5" y="-67.5" font-family="Helvetica,sans-Serif" font-size="10.00">array&#45;087</text>
</a>
</g>
</g>
<!-- op&#45;087&#45;&gt;array&#45;087 -->
<g id="edge12" class="edge">
<title>op&#45;087&#45;&gt;array&#45;087</title>
<path fill="none" stroke="black" d="M64.5,-123.69C64.5,-115.91 64.5,-106.84 64.5,-98.45"/>
<polygon fill="black" stroke="black" points="68,-98.32 64.5,-88.32 61,-98.32 68,-98.32"/>
</g>
<!-- op&#45;076 -->
<g id="node13" class="node">
<title>op&#45;076</title>
<g id="a_node13"><a xlink:title="name: op&#45;076&#10;op: from_zarr&#10;calls: test_quadratic_means_xarray&#10;line: 57 in test_quadratic_means_xarray">
<path fill="none" stroke="black" d="M201,-756C201,-756 166,-756 166,-756 160,-756 154,-750 154,-744 154,-744 154,-732 154,-732 154,-726 160,-720 166,-720 166,-720 201,-720 201,-720 207,-720 213,-726 213,-732 213,-732 213,-744 213,-744 213,-750 207,-756 201,-756"/>
<text text-anchor="middle" x="183.5" y="-741" font-family="Helvetica,sans-Serif" font-size="10.00">op&#45;076</text>
<text text-anchor="middle" x="183.5" y="-730" font-family="Helvetica,sans-Serif" font-size="10.00">from_zarr</text>
</a>
</g>
</g>
<!-- array&#45;076 -->
<g id="node14" class="node">
<title>array&#45;076</title>
<g id="a_node14"><a xlink:title="name: array&#45;076&#10;variable: self_data&#10;shape: (50000, 1, 987, 1920)&#10;chunks: (10, 1, 987, 1920)&#10;dtype: float64&#10;chunk memory: 151.6 MB&#10;nbytes: 758.0 GB">
<polygon fill="#ffd8b1" stroke="black" points="213,-684 154,-684 154,-648 213,-648 213,-684"/>
<text text-anchor="middle" x="183.5" y="-669" font-family="Helvetica,sans-Serif" font-size="10.00">array&#45;076</text>
<text text-anchor="middle" x="183.5" y="-658" font-family="Helvetica,sans-Serif" font-size="10.00">self_data</text>
</a>
</g>
</g>
<!-- op&#45;076&#45;&gt;array&#45;076 -->
<g id="edge13" class="edge">
<title>op&#45;076&#45;&gt;array&#45;076</title>
<path fill="none" stroke="black" d="M183.5,-719.7C183.5,-711.98 183.5,-702.71 183.5,-694.11"/>
<polygon fill="black" stroke="black" points="187,-694.1 183.5,-684.1 180,-694.1 187,-694.1"/>
</g>
<!-- op&#45;088 -->
<g id="node17" class="node">
<title>op&#45;088</title>
<g id="a_node17"><a xlink:title="name: op&#45;088&#10;op: blockwise&#10;projected memory: 706.4 MB&#10;tasks: 500&#10;num input blocks: (10, 10)&#10;calls: &#10;line: 416 in f">
<path fill="#dcbeff" stroke="black" d="M270.5,-612C270.5,-612 232.5,-612 232.5,-612 226.5,-612 220.5,-606 220.5,-600 220.5,-600 220.5,-583 220.5,-583 220.5,-577 226.5,-571 232.5,-571 232.5,-571 270.5,-571 270.5,-571 276.5,-571 282.5,-577 282.5,-583 282.5,-583 282.5,-600 282.5,-600 282.5,-606 276.5,-612 270.5,-612"/>
<text text-anchor="middle" x="251.5" y="-600" font-family="Helvetica,sans-Serif" font-size="10.00">op&#45;088</text>
<text text-anchor="middle" x="251.5" y="-589" font-family="Helvetica,sans-Serif" font-size="10.00">mean</text>
<text text-anchor="middle" x="251.5" y="-578" font-family="Helvetica,sans-Serif" font-size="10.00">tasks: 500</text>
</a>
</g>
</g>
<!-- array&#45;076&#45;&gt;op&#45;088 -->
<g id="edge15" class="edge">
<title>array&#45;076&#45;&gt;op&#45;088</title>
<path fill="none" stroke="black" d="M199.62,-647.82C207.55,-639.36 217.3,-628.97 226.2,-619.48"/>
<polygon fill="black" stroke="black" points="228.81,-621.81 233.1,-612.12 223.7,-617.02 228.81,-621.81"/>
</g>
<!-- array&#45;076&#45;&gt;op&#45;094 -->
<g id="edge14" class="edge">
<title>array&#45;076&#45;&gt;op&#45;094</title>
<path fill="none" stroke="black" d="M178.52,-647.82C176.27,-640.03 173.54,-630.6 170.97,-621.75"/>
<polygon fill="black" stroke="black" points="174.33,-620.75 168.18,-612.12 167.6,-622.7 174.33,-620.75"/>
</g>
<!-- op&#45;079 -->
<g id="node15" class="node">
<title>op&#45;079</title>
<g id="a_node15"><a xlink:title="name: op&#45;079&#10;op: asarray&#10;calls: &#10;line: 2273 in _binary_op">
<path fill="none" stroke="black" d="M277,-756C277,-756 244,-756 244,-756 238,-756 232,-750 232,-744 232,-744 232,-732 232,-732 232,-726 238,-720 244,-720 244,-720 277,-720 277,-720 283,-720 289,-726 289,-732 289,-732 289,-744 289,-744 289,-750 283,-756 277,-756"/>
<text text-anchor="middle" x="260.5" y="-741" font-family="Helvetica,sans-Serif" font-size="10.00">op&#45;079</text>
<text text-anchor="middle" x="260.5" y="-730" font-family="Helvetica,sans-Serif" font-size="10.00">__pow__</text>
</a>
</g>
</g>
<!-- array&#45;079 -->
<g id="node16" class="node">
<title>array&#45;079</title>
<g id="a_node16"><a xlink:title="name: array&#45;079&#10;shape: ()&#10;chunks: ()&#10;dtype: float64&#10;chunk memory: 8 bytes">
<polygon fill="none" stroke="black" points="290,-684 231,-684 231,-648 290,-648 290,-684"/>
<text text-anchor="middle" x="260.5" y="-663.5" font-family="Helvetica,sans-Serif" font-size="10.00">array&#45;079</text>
</a>
</g>
</g>
<!-- op&#45;079&#45;&gt;array&#45;079 -->
<g id="edge16" class="edge">
<title>op&#45;079&#45;&gt;array&#45;079</title>
<path fill="none" stroke="black" d="M260.5,-719.7C260.5,-711.98 260.5,-702.71 260.5,-694.11"/>
<polygon fill="black" stroke="black" points="264,-694.1 260.5,-684.1 257,-694.1 264,-694.1"/>
</g>
<!-- array&#45;079&#45;&gt;op&#45;088 -->
<g id="edge17" class="edge">
<title>array&#45;079&#45;&gt;op&#45;088</title>
<path fill="none" stroke="black" d="M258.37,-647.82C257.42,-640.2 256.28,-631 255.2,-622.32"/>
<polygon fill="black" stroke="black" points="258.64,-621.61 253.94,-612.12 251.69,-622.47 258.64,-621.61"/>
</g>
<!-- array&#45;088 -->
<g id="node18" class="node">
<title>array&#45;088</title>
<g id="a_node18"><a xlink:title="name: array&#45;088&#10;shape: (500, 1, 987, 1920)&#10;chunks: (1, 1, 987, 1920)&#10;dtype: [(&#39;n&#39;, &#39;&lt;i8&#39;), (&#39;total&#39;, &#39;&lt;f8&#39;)]&#10;chunk memory: 30.3 MB&#10;nbytes: 15.2 GB">
<polygon fill="#ffd8b1" stroke="black" points="281,-535 222,-535 222,-499 281,-499 281,-535"/>
<text text-anchor="middle" x="251.5" y="-514.5" font-family="Helvetica,sans-Serif" font-size="10.00">array&#45;088</text>
</a>
</g>
</g>
<!-- op&#45;088&#45;&gt;array&#45;088 -->
<g id="edge18" class="edge">
<title>op&#45;088&#45;&gt;array&#45;088</title>
<path fill="none" stroke="black" d="M251.5,-570.69C251.5,-562.91 251.5,-553.84 251.5,-545.45"/>
<polygon fill="black" stroke="black" points="255,-545.32 251.5,-535.32 248,-545.32 255,-545.32"/>
</g>
<!-- op&#45;089 -->
<g id="node19" class="node">
<title>op&#45;089</title>
<g id="a_node19"><a xlink:title="name: op&#45;089&#10;op: blockwise&#10;projected memory: 312.2 MB&#10;tasks: 50&#10;num input blocks: (10,)&#10;calls: &#10;line: 416 in f">
<path fill="#dcbeff" stroke="black" d="M268,-463C268,-463 235,-463 235,-463 229,-463 223,-457 223,-451 223,-451 223,-434 223,-434 223,-428 229,-422 235,-422 235,-422 268,-422 268,-422 274,-422 280,-428 280,-434 280,-434 280,-451 280,-451 280,-457 274,-463 268,-463"/>
<text text-anchor="middle" x="251.5" y="-451" font-family="Helvetica,sans-Serif" font-size="10.00">op&#45;089</text>
<text text-anchor="middle" x="251.5" y="-440" font-family="Helvetica,sans-Serif" font-size="10.00">mean</text>
<text text-anchor="middle" x="251.5" y="-429" font-family="Helvetica,sans-Serif" font-size="10.00">tasks: 50</text>
</a>
</g>
</g>
<!-- array&#45;088&#45;&gt;op&#45;089 -->
<g id="edge19" class="edge">
<title>array&#45;088&#45;&gt;op&#45;089</title>
<path fill="none" stroke="black" d="M251.5,-498.82C251.5,-491.2 251.5,-482 251.5,-473.32"/>
<polygon fill="black" stroke="black" points="255,-473.12 251.5,-463.12 248,-473.12 255,-473.12"/>
</g>
<!-- array&#45;089 -->
<g id="node20" class="node">
<title>array&#45;089</title>
<g id="a_node20"><a xlink:title="name: array&#45;089&#10;shape: (50, 1, 987, 1920)&#10;chunks: (1, 1, 987, 1920)&#10;dtype: [(&#39;n&#39;, &#39;&lt;i8&#39;), (&#39;total&#39;, &#39;&lt;f8&#39;)]&#10;chunk memory: 30.3 MB&#10;nbytes: 1.5 GB">
<polygon fill="#ffd8b1" stroke="black" points="281,-386 222,-386 222,-350 281,-350 281,-386"/>
<text text-anchor="middle" x="251.5" y="-365.5" font-family="Helvetica,sans-Serif" font-size="10.00">array&#45;089</text>
</a>
</g>
</g>
<!-- op&#45;089&#45;&gt;array&#45;089 -->
<g id="edge20" class="edge">
<title>op&#45;089&#45;&gt;array&#45;089</title>
<path fill="none" stroke="black" d="M251.5,-421.69C251.5,-413.91 251.5,-404.84 251.5,-396.45"/>
<polygon fill="black" stroke="black" points="255,-396.32 251.5,-386.32 248,-396.32 255,-396.32"/>
</g>
<!-- op&#45;090 -->
<g id="node21" class="node">
<title>op&#45;090</title>
<g id="a_node21"><a xlink:title="name: op&#45;090&#10;op: blockwise&#10;projected memory: 312.2 MB&#10;tasks: 5&#10;num input blocks: (10,)&#10;calls: &#10;line: 416 in f">
<path fill="#dcbeff" stroke="black" d="M266.5,-314C266.5,-314 236.5,-314 236.5,-314 230.5,-314 224.5,-308 224.5,-302 224.5,-302 224.5,-285 224.5,-285 224.5,-279 230.5,-273 236.5,-273 236.5,-273 266.5,-273 266.5,-273 272.5,-273 278.5,-279 278.5,-285 278.5,-285 278.5,-302 278.5,-302 278.5,-308 272.5,-314 266.5,-314"/>
<text text-anchor="middle" x="251.5" y="-302" font-family="Helvetica,sans-Serif" font-size="10.00">op&#45;090</text>
<text text-anchor="middle" x="251.5" y="-291" font-family="Helvetica,sans-Serif" font-size="10.00">mean</text>
<text text-anchor="middle" x="251.5" y="-280" font-family="Helvetica,sans-Serif" font-size="10.00">tasks: 5</text>
</a>
</g>
</g>
<!-- array&#45;089&#45;&gt;op&#45;090 -->
<g id="edge21" class="edge">
<title>array&#45;089&#45;&gt;op&#45;090</title>
<path fill="none" stroke="black" d="M251.5,-349.82C251.5,-342.2 251.5,-333 251.5,-324.32"/>
<polygon fill="black" stroke="black" points="255,-324.12 251.5,-314.12 248,-324.12 255,-324.12"/>
</g>
<!-- array&#45;090 -->
<g id="node22" class="node">
<title>array&#45;090</title>
<g id="a_node22"><a xlink:title="name: array&#45;090&#10;shape: (5, 1, 987, 1920)&#10;chunks: (1, 1, 987, 1920)&#10;dtype: [(&#39;n&#39;, &#39;&lt;i8&#39;), (&#39;total&#39;, &#39;&lt;f8&#39;)]&#10;chunk memory: 30.3 MB&#10;nbytes: 151.6 MB">
<polygon fill="#ffd8b1" stroke="black" points="281,-237 222,-237 222,-201 281,-201 281,-237"/>
<text text-anchor="middle" x="251.5" y="-216.5" font-family="Helvetica,sans-Serif" font-size="10.00">array&#45;090</text>
</a>
</g>
</g>
<!-- op&#45;090&#45;&gt;array&#45;090 -->
<g id="edge22" class="edge">
<title>op&#45;090&#45;&gt;array&#45;090</title>
<path fill="none" stroke="black" d="M251.5,-272.69C251.5,-264.91 251.5,-255.84 251.5,-247.45"/>
<polygon fill="black" stroke="black" points="255,-247.32 251.5,-237.32 248,-247.32 255,-247.32"/>
</g>
<!-- op&#45;093 -->
<g id="node23" class="node">
<title>op&#45;093</title>
<g id="a_node23"><a xlink:title="name: op&#45;093&#10;op: blockwise&#10;projected memory: 312.2 MB&#10;tasks: 1&#10;num input blocks: (10,)&#10;calls: &#10;line: 416 in f">
<path fill="#dcbeff" stroke="black" d="M266.5,-165C266.5,-165 236.5,-165 236.5,-165 230.5,-165 224.5,-159 224.5,-153 224.5,-153 224.5,-136 224.5,-136 224.5,-130 230.5,-124 236.5,-124 236.5,-124 266.5,-124 266.5,-124 272.5,-124 278.5,-130 278.5,-136 278.5,-136 278.5,-153 278.5,-153 278.5,-159 272.5,-165 266.5,-165"/>
<text text-anchor="middle" x="251.5" y="-153" font-family="Helvetica,sans-Serif" font-size="10.00">op&#45;093</text>
<text text-anchor="middle" x="251.5" y="-142" font-family="Helvetica,sans-Serif" font-size="10.00">mean</text>
<text text-anchor="middle" x="251.5" y="-131" font-family="Helvetica,sans-Serif" font-size="10.00">tasks: 1</text>
</a>
</g>
</g>
<!-- array&#45;090&#45;&gt;op&#45;093 -->
<g id="edge23" class="edge">
<title>array&#45;090&#45;&gt;op&#45;093</title>
<path fill="none" stroke="black" d="M251.5,-200.82C251.5,-193.2 251.5,-184 251.5,-175.32"/>
<polygon fill="black" stroke="black" points="255,-175.12 251.5,-165.12 248,-175.12 255,-175.12"/>
</g>
<!-- array&#45;093 -->
<g id="node24" class="node">
<title>array&#45;093</title>
<g id="a_node24"><a xlink:title="name: array&#45;093&#10;shape: (1, 987, 1920)&#10;chunks: (1, 987, 1920)&#10;dtype: float64&#10;chunk memory: 15.2 MB&#10;nbytes: 15.2 MB">
<polygon fill="#ffd8b1" stroke="black" points="281,-88 222,-88 222,-52 281,-52 281,-88"/>
<text text-anchor="middle" x="251.5" y="-67.5" font-family="Helvetica,sans-Serif" font-size="10.00">array&#45;093</text>
</a>
</g>
</g>
<!-- op&#45;093&#45;&gt;array&#45;093 -->
<g id="edge24" class="edge">
<title>op&#45;093&#45;&gt;array&#45;093</title>
<path fill="none" stroke="black" d="M251.5,-123.69C251.5,-115.91 251.5,-106.84 251.5,-98.45"/>
<polygon fill="black" stroke="black" points="255,-98.32 251.5,-88.32 248,-98.32 255,-98.32"/>
</g>
<!-- array&#45;094 -->
<g id="node26" class="node">
<title>array&#45;094</title>
<g id="a_node26"><a xlink:title="name: array&#45;094&#10;shape: (500, 1, 987, 1920)&#10;chunks: (1, 1, 987, 1920)&#10;dtype: [(&#39;n&#39;, &#39;&lt;i8&#39;), (&#39;total&#39;, &#39;&lt;f8&#39;)]&#10;chunk memory: 30.3 MB&#10;nbytes: 15.2 GB">
<polygon fill="#ffd8b1" stroke="black" points="192,-535 133,-535 133,-499 192,-499 192,-535"/>
<text text-anchor="middle" x="162.5" y="-514.5" font-family="Helvetica,sans-Serif" font-size="10.00">array&#45;094</text>
</a>
</g>
</g>
<!-- op&#45;094&#45;&gt;array&#45;094 -->
<g id="edge25" class="edge">
<title>op&#45;094&#45;&gt;array&#45;094</title>
<path fill="none" stroke="black" d="M162.5,-570.69C162.5,-562.91 162.5,-553.84 162.5,-545.45"/>
<polygon fill="black" stroke="black" points="166,-545.32 162.5,-535.32 159,-545.32 166,-545.32"/>
</g>
<!-- op&#45;095 -->
<g id="node27" class="node">
<title>op&#45;095</title>
<g id="a_node27"><a xlink:title="name: op&#45;095&#10;op: blockwise&#10;projected memory: 312.2 MB&#10;tasks: 50&#10;num input blocks: (10,)&#10;calls: &#10;line: 416 in f">
<path fill="#dcbeff" stroke="black" d="M179,-463C179,-463 146,-463 146,-463 140,-463 134,-457 134,-451 134,-451 134,-434 134,-434 134,-428 140,-422 146,-422 146,-422 179,-422 179,-422 185,-422 191,-428 191,-434 191,-434 191,-451 191,-451 191,-457 185,-463 179,-463"/>
<text text-anchor="middle" x="162.5" y="-451" font-family="Helvetica,sans-Serif" font-size="10.00">op&#45;095</text>
<text text-anchor="middle" x="162.5" y="-440" font-family="Helvetica,sans-Serif" font-size="10.00">mean</text>
<text text-anchor="middle" x="162.5" y="-429" font-family="Helvetica,sans-Serif" font-size="10.00">tasks: 50</text>
</a>
</g>
</g>
<!-- array&#45;094&#45;&gt;op&#45;095 -->
<g id="edge26" class="edge">
<title>array&#45;094&#45;&gt;op&#45;095</title>
<path fill="none" stroke="black" d="M162.5,-498.82C162.5,-491.2 162.5,-482 162.5,-473.32"/>
<polygon fill="black" stroke="black" points="166,-473.12 162.5,-463.12 159,-473.12 166,-473.12"/>
</g>
<!-- array&#45;095 -->
<g id="node28" class="node">
<title>array&#45;095</title>
<g id="a_node28"><a xlink:title="name: array&#45;095&#10;shape: (50, 1, 987, 1920)&#10;chunks: (1, 1, 987, 1920)&#10;dtype: [(&#39;n&#39;, &#39;&lt;i8&#39;), (&#39;total&#39;, &#39;&lt;f8&#39;)]&#10;chunk memory: 30.3 MB&#10;nbytes: 1.5 GB">
<polygon fill="#ffd8b1" stroke="black" points="192,-386 133,-386 133,-350 192,-350 192,-386"/>
<text text-anchor="middle" x="162.5" y="-365.5" font-family="Helvetica,sans-Serif" font-size="10.00">array&#45;095</text>
</a>
</g>
</g>
<!-- op&#45;095&#45;&gt;array&#45;095 -->
<g id="edge27" class="edge">
<title>op&#45;095&#45;&gt;array&#45;095</title>
<path fill="none" stroke="black" d="M162.5,-421.69C162.5,-413.91 162.5,-404.84 162.5,-396.45"/>
<polygon fill="black" stroke="black" points="166,-396.32 162.5,-386.32 159,-396.32 166,-396.32"/>
</g>
<!-- op&#45;096 -->
<g id="node29" class="node">
<title>op&#45;096</title>
<g id="a_node29"><a xlink:title="name: op&#45;096&#10;op: blockwise&#10;projected memory: 312.2 MB&#10;tasks: 5&#10;num input blocks: (10,)&#10;calls: &#10;line: 416 in f">
<path fill="#dcbeff" stroke="black" d="M177.5,-314C177.5,-314 147.5,-314 147.5,-314 141.5,-314 135.5,-308 135.5,-302 135.5,-302 135.5,-285 135.5,-285 135.5,-279 141.5,-273 147.5,-273 147.5,-273 177.5,-273 177.5,-273 183.5,-273 189.5,-279 189.5,-285 189.5,-285 189.5,-302 189.5,-302 189.5,-308 183.5,-314 177.5,-314"/>
<text text-anchor="middle" x="162.5" y="-302" font-family="Helvetica,sans-Serif" font-size="10.00">op&#45;096</text>
<text text-anchor="middle" x="162.5" y="-291" font-family="Helvetica,sans-Serif" font-size="10.00">mean</text>
<text text-anchor="middle" x="162.5" y="-280" font-family="Helvetica,sans-Serif" font-size="10.00">tasks: 5</text>
</a>
</g>
</g>
<!-- array&#45;095&#45;&gt;op&#45;096 -->
<g id="edge28" class="edge">
<title>array&#45;095&#45;&gt;op&#45;096</title>
<path fill="none" stroke="black" d="M162.5,-349.82C162.5,-342.2 162.5,-333 162.5,-324.32"/>
<polygon fill="black" stroke="black" points="166,-324.12 162.5,-314.12 159,-324.12 166,-324.12"/>
</g>
<!-- array&#45;096 -->
<g id="node30" class="node">
<title>array&#45;096</title>
<g id="a_node30"><a xlink:title="name: array&#45;096&#10;shape: (5, 1, 987, 1920)&#10;chunks: (1, 1, 987, 1920)&#10;dtype: [(&#39;n&#39;, &#39;&lt;i8&#39;), (&#39;total&#39;, &#39;&lt;f8&#39;)]&#10;chunk memory: 30.3 MB&#10;nbytes: 151.6 MB">
<polygon fill="#ffd8b1" stroke="black" points="192,-237 133,-237 133,-201 192,-201 192,-237"/>
<text text-anchor="middle" x="162.5" y="-216.5" font-family="Helvetica,sans-Serif" font-size="10.00">array&#45;096</text>
</a>
</g>
</g>
<!-- op&#45;096&#45;&gt;array&#45;096 -->
<g id="edge29" class="edge">
<title>op&#45;096&#45;&gt;array&#45;096</title>
<path fill="none" stroke="black" d="M162.5,-272.69C162.5,-264.91 162.5,-255.84 162.5,-247.45"/>
<polygon fill="black" stroke="black" points="166,-247.32 162.5,-237.32 159,-247.32 166,-247.32"/>
</g>
<!-- op&#45;099 -->
<g id="node31" class="node">
<title>op&#45;099</title>
<g id="a_node31"><a xlink:title="name: op&#45;099&#10;op: blockwise&#10;projected memory: 312.2 MB&#10;tasks: 1&#10;num input blocks: (10,)&#10;calls: &#10;line: 416 in f">
<path fill="#dcbeff" stroke="black" d="M177.5,-165C177.5,-165 147.5,-165 147.5,-165 141.5,-165 135.5,-159 135.5,-153 135.5,-153 135.5,-136 135.5,-136 135.5,-130 141.5,-124 147.5,-124 147.5,-124 177.5,-124 177.5,-124 183.5,-124 189.5,-130 189.5,-136 189.5,-136 189.5,-153 189.5,-153 189.5,-159 183.5,-165 177.5,-165"/>
<text text-anchor="middle" x="162.5" y="-153" font-family="Helvetica,sans-Serif" font-size="10.00">op&#45;099</text>
<text text-anchor="middle" x="162.5" y="-142" font-family="Helvetica,sans-Serif" font-size="10.00">mean</text>
<text text-anchor="middle" x="162.5" y="-131" font-family="Helvetica,sans-Serif" font-size="10.00">tasks: 1</text>
</a>
</g>
</g>
<!-- array&#45;096&#45;&gt;op&#45;099 -->
<g id="edge30" class="edge">
<title>array&#45;096&#45;&gt;op&#45;099</title>
<path fill="none" stroke="black" d="M162.5,-200.82C162.5,-193.2 162.5,-184 162.5,-175.32"/>
<polygon fill="black" stroke="black" points="166,-175.12 162.5,-165.12 159,-175.12 166,-175.12"/>
</g>
<!-- array&#45;099 -->
<g id="node32" class="node">
<title>array&#45;099</title>
<g id="a_node32"><a xlink:title="name: array&#45;099&#10;shape: (1, 987, 1920)&#10;chunks: (1, 987, 1920)&#10;dtype: float64&#10;chunk memory: 15.2 MB&#10;nbytes: 15.2 MB">
<polygon fill="#ffd8b1" stroke="black" points="192,-88 133,-88 133,-52 192,-52 192,-88"/>
<text text-anchor="middle" x="162.5" y="-67.5" font-family="Helvetica,sans-Serif" font-size="10.00">array&#45;099</text>
</a>
</g>
</g>
<!-- op&#45;099&#45;&gt;array&#45;099 -->
<g id="edge31" class="edge">
<title>op&#45;099&#45;&gt;array&#45;099</title>
<path fill="none" stroke="black" d="M162.5,-123.69C162.5,-115.91 162.5,-106.84 162.5,-98.45"/>
<polygon fill="black" stroke="black" points="166,-98.32 162.5,-88.32 159,-98.32 166,-98.32"/>
</g>
<!-- create&#45;arrays -->
<g id="node33" class="node">
<title>create&#45;arrays</title>
<g id="a_node33"><a xlink:title="name: create&#45;arrays&#10;op: create&#45;arrays&#10;projected memory: 100.0 MB&#10;tasks: 12">
<path fill="none" stroke="black" d="M370,-756C370,-756 319,-756 319,-756 313,-756 307,-750 307,-744 307,-744 307,-732 307,-732 307,-726 313,-720 319,-720 319,-720 370,-720 370,-720 376,-720 382,-726 382,-732 382,-732 382,-744 382,-744 382,-750 376,-756 370,-756"/>
<text text-anchor="middle" x="344.5" y="-741" font-family="Helvetica,sans-Serif" font-size="10.00">create&#45;arrays</text>
<text text-anchor="middle" x="344.5" y="-730" font-family="Helvetica,sans-Serif" font-size="10.00">tasks: 12</text>
</a>
</g>
</g>
<!-- arrays -->
<g id="node34" class="node">
<title>arrays</title>
<g id="a_node34"><a xlink:title="name: arrays" target="None">
<polygon fill="none" stroke="black" points="371.5,-684 317.5,-684 317.5,-648 371.5,-648 371.5,-684"/>
<text text-anchor="middle" x="344.5" y="-663.5" font-family="Helvetica,sans-Serif" font-size="10.00">arrays</text>
</a>
</g>
</g>
<!-- create&#45;arrays&#45;&gt;arrays -->
<g id="edge32" class="edge">
<title>create&#45;arrays&#45;&gt;arrays</title>
<path fill="none" stroke="black" d="M344.5,-719.7C344.5,-711.98 344.5,-702.71 344.5,-694.11"/>
<polygon fill="black" stroke="black" points="348,-694.1 344.5,-684.1 341,-694.1 348,-694.1"/>
</g>
</g>
</svg>
